<svg width="485" height="400" viewBox="0 0 485 400" fill="none" xmlns="http://www.w3.org/2000/svg">
<path fill-rule="evenodd" clip-rule="evenodd" d="M262.491 6.82965C311.153 22.6055 259.107 104.159 289.668 139.392C312.765 166.022 404.549 157.815 419.503 187.849C437.721 224.44 494.176 257.853 483.704 295.144C354.01 300.587 410.685 388.494 360.484 398.026C309.381 407.73 266.952 358.703 215.865 344.235C177.478 333.364 135.08 342.009 100.269 324.334C59.4921 303.631 20.8031 275.263 6.75195 238.062C-7.93314 199.183 5.32363 158.652 24.0399 122.514C43.2919 85.3425 71.702 51.6339 113.914 31.1549C157.875 9.82693 212.864 -9.25858 262.491 6.82965Z" fill="#4776F0" fill-opacity="0.05"/>
</svg>
