<svg width="129" height="32" viewBox="0 0 129 32" fill="none" xmlns="http://www.w3.org/2000/svg">
<path d="M0.344753 26.7112L0.821763 26.0392C1.44246 25.2235 2.06315 25.1754 3.01847 25.7029C4.11682 26.4237 6.12259 27.6713 8.93934 27.6713C11.327 27.6713 13.046 26.5193 13.046 24.4553C13.046 19.7046 0.582932 21.288 0.582932 13.0819C0.582932 8.4744 4.59382 6.07471 9.3212 6.07471C12.6642 6.07471 14.8609 7.22674 16.0065 7.9462C16.866 8.37813 17.009 9.19386 16.532 10.0577L16.1023 10.7778C15.6246 11.6417 14.9081 11.7373 14.0013 11.3054C12.9981 10.7303 11.3749 9.91396 9.08302 9.91396C6.79053 9.91396 5.02358 10.9222 5.02358 12.985C5.02358 17.8332 17.4867 16.1048 17.4867 24.3596C17.4867 28.4864 14.0013 31.5106 8.7963 31.5106C4.78476 31.5106 2.0159 29.8785 0.678719 28.8702C-0.13291 28.3427 -0.180799 27.5269 0.344753 26.7112Z" fill="#334150"/>
<path d="M38.0577 16.2004C37.9146 11.9292 35.3839 9.72141 32.1847 9.72141C28.6514 9.72141 25.7861 12.1211 25.1175 16.2004H38.0577ZM32.2798 6.07471C38.9651 6.07471 42.6892 10.8734 42.6892 17.6406C42.6892 18.5038 42.0213 19.2721 41.066 19.2721H24.9266C25.2127 24.5509 28.9848 27.4788 33.283 27.4788C35.9095 27.4788 37.9625 26.3749 39.0609 25.5591C39.9676 25.0784 40.6841 25.1747 41.209 26.0867L41.6388 26.8068C42.1164 27.6225 41.9734 28.4383 41.1618 28.9183C39.7288 29.9266 36.8642 31.5099 32.9963 31.5099C25.4036 31.5099 20.1992 25.9911 20.1992 18.792C20.1992 11.0653 25.4036 6.07471 32.2798 6.07471Z" fill="#334150"/>
<path d="M58.2639 6.07471C62.3227 6.07471 64.9485 7.65868 66.2378 8.66565C67.0501 9.19386 67.0973 10.0102 66.5245 10.826L66.0468 11.5454C65.474 12.4093 64.8055 12.4574 63.898 11.9292C62.8955 11.2098 61.0334 10.1059 58.5027 10.1059C53.6323 10.1059 50.0984 13.7532 50.0984 18.7445C50.0984 23.687 53.6323 27.4788 58.5985 27.4788C61.5111 27.4788 63.612 26.1348 64.7576 25.271C65.6171 24.6953 66.3336 24.7909 66.907 25.7029L67.2882 26.423C67.7665 27.2388 67.6229 28.007 66.8585 28.5345C65.5219 29.6385 62.6094 31.5106 58.2639 31.5106C50.6719 31.5106 45.371 26.0874 45.371 18.7926C45.371 11.5936 50.7191 6.07471 58.2639 6.07471Z" fill="#334150"/>
<path d="M73.1205 10.702H71.4493C70.4468 10.702 69.9219 10.1263 69.9219 9.11807V8.49424C69.9219 7.48726 70.4468 6.91092 71.4972 6.91092H73.2156V1.58332C73.2156 0.527556 73.7891 0 74.7923 0H76.1767C77.2272 0 77.7521 0.527556 77.7521 1.58332V6.91092H81.9546C83.005 6.91092 83.5306 7.48726 83.5306 8.49424V9.11807C83.5306 10.1263 83.005 10.702 82.0025 10.702H77.7521V21.5003C77.7521 26.1078 80.5701 26.8273 82.3364 26.9717C83.5778 27.0673 84.0076 27.4511 84.0076 28.555V29.5626C84.0076 30.6665 83.3869 31.1466 82.0976 31.1466C77.323 31.1466 73.1205 28.3625 73.1205 22.2198V10.702Z" fill="#334150"/>
<path d="M115.484 8.25471C115.484 7.19895 116.058 6.67074 117.06 6.67074H118.398C119.448 6.67074 119.974 7.19895 119.974 8.25471V11.0382C119.974 12.0465 119.83 12.8622 119.83 12.8622H119.925C120.975 9.64678 123.697 6.47949 127.327 6.47949C128.424 6.47949 128.854 7.00705 128.854 8.06281V9.40674C128.854 10.4625 128.234 10.9907 127.136 10.9907C122.408 10.9907 120.116 16.1258 120.116 20.9252V29.3713C120.116 30.427 119.591 30.9546 118.541 30.9546H117.06C116.058 30.9546 115.484 30.427 115.484 29.3713V8.25471Z" fill="#334150"/>
<path d="M104.742 7.39746L103.312 11.4085C104.681 12.2808 105.778 13.5584 106.447 15.128L110.927 13.8166C109.737 10.9596 107.528 8.71473 104.742 7.39746Z" fill="#FB7D29"/>
<path d="M107.107 17.6289C107.149 17.9932 107.176 18.3633 107.176 18.7445C107.176 23.8314 103.452 27.4794 98.8685 27.4794C94.332 27.4794 90.56 23.8314 90.56 18.7445C90.56 13.7057 94.332 10.1065 98.8685 10.1065C99.5817 10.1065 100.27 10.2028 100.931 10.3693L102.306 6.50989C101.21 6.23343 100.061 6.07471 98.8685 6.07471C91.6577 6.07471 85.8799 11.4017 85.8799 18.7445C85.8799 26.1349 91.6577 31.5106 98.8685 31.5106C106.079 31.5106 111.904 26.1349 111.904 18.7445C111.904 17.8976 111.818 17.0812 111.67 16.2934L107.107 17.6289Z" fill="#334150"/>
</svg>
